<mxfile host="Electron" modified="2023-12-02T21:09:41.782Z" agent="Mozilla/5.0 (Windows NT 10.0; Win64; x64) AppleWebKit/537.36 (KHTML, like Gecko) draw.io/22.1.2 Chrome/114.0.5735.289 Electron/25.9.4 Safari/537.36" etag="56IwuvT_wQC2JN4yf1oZ" version="22.1.2" type="device">
  <diagram id="C5RBs43oDa-KdzZeNtuy" name="Page-1">
    <mxGraphModel dx="2068" dy="1844" grid="1" gridSize="10" guides="1" tooltips="1" connect="1" arrows="1" fold="1" page="1" pageScale="1" pageWidth="827" pageHeight="1169" background="none" math="0" shadow="0">
      <root>
        <mxCell id="WIyWlLk6GJQsqaUBKTNV-0" />
        <mxCell id="WIyWlLk6GJQsqaUBKTNV-1" parent="WIyWlLk6GJQsqaUBKTNV-0" />
        <mxCell id="zkfFHV4jXpPFQw0GAbJ--0" value="Bakery(Controllor Class)" style="swimlane;fontStyle=2;align=center;verticalAlign=top;childLayout=stackLayout;horizontal=1;startSize=26;horizontalStack=0;resizeParent=1;resizeLast=0;collapsible=1;marginBottom=0;rounded=0;shadow=0;strokeWidth=1;fontSize=14;" parent="WIyWlLk6GJQsqaUBKTNV-1" vertex="1">
          <mxGeometry x="255" y="80" width="160" height="138" as="geometry">
            <mxRectangle x="230" y="140" width="160" height="26" as="alternateBounds" />
          </mxGeometry>
        </mxCell>
        <mxCell id="zkfFHV4jXpPFQw0GAbJ--4" value="" style="line;html=1;strokeWidth=1;align=left;verticalAlign=middle;spacingTop=-1;spacingLeft=3;spacingRight=3;rotatable=0;labelPosition=right;points=[];portConstraint=eastwest;fontSize=14;" parent="zkfFHV4jXpPFQw0GAbJ--0" vertex="1">
          <mxGeometry y="26" width="160" height="8" as="geometry" />
        </mxCell>
        <mxCell id="zkfFHV4jXpPFQw0GAbJ--6" value="Admin" style="swimlane;fontStyle=0;align=center;verticalAlign=top;childLayout=stackLayout;horizontal=1;startSize=26;horizontalStack=0;resizeParent=1;resizeLast=0;collapsible=1;marginBottom=0;rounded=0;shadow=0;strokeWidth=1;fontSize=14;" parent="WIyWlLk6GJQsqaUBKTNV-1" vertex="1">
          <mxGeometry x="400" y="-300" width="160" height="242" as="geometry">
            <mxRectangle x="130" y="380" width="160" height="26" as="alternateBounds" />
          </mxGeometry>
        </mxCell>
        <mxCell id="zkfFHV4jXpPFQw0GAbJ--7" value="-username" style="text;align=left;verticalAlign=top;spacingLeft=4;spacingRight=4;overflow=hidden;rotatable=0;points=[[0,0.5],[1,0.5]];portConstraint=eastwest;fontSize=14;" parent="zkfFHV4jXpPFQw0GAbJ--6" vertex="1">
          <mxGeometry y="26" width="160" height="26" as="geometry" />
        </mxCell>
        <mxCell id="zkfFHV4jXpPFQw0GAbJ--8" value="-password" style="text;align=left;verticalAlign=top;spacingLeft=4;spacingRight=4;overflow=hidden;rotatable=0;points=[[0,0.5],[1,0.5]];portConstraint=eastwest;rounded=0;shadow=0;html=0;fontSize=14;" parent="zkfFHV4jXpPFQw0GAbJ--6" vertex="1">
          <mxGeometry y="52" width="160" height="26" as="geometry" />
        </mxCell>
        <mxCell id="zkfFHV4jXpPFQw0GAbJ--9" value="" style="line;html=1;strokeWidth=1;align=left;verticalAlign=middle;spacingTop=-1;spacingLeft=3;spacingRight=3;rotatable=0;labelPosition=right;points=[];portConstraint=eastwest;fontSize=14;" parent="zkfFHV4jXpPFQw0GAbJ--6" vertex="1">
          <mxGeometry y="78" width="160" height="8" as="geometry" />
        </mxCell>
        <mxCell id="zkfFHV4jXpPFQw0GAbJ--10" value="login(username, password)" style="text;align=left;verticalAlign=top;spacingLeft=4;spacingRight=4;overflow=hidden;rotatable=0;points=[[0,0.5],[1,0.5]];portConstraint=eastwest;fontStyle=0;fontSize=14;" parent="zkfFHV4jXpPFQw0GAbJ--6" vertex="1">
          <mxGeometry y="86" width="160" height="26" as="geometry" />
        </mxCell>
        <mxCell id="3z05yCh0M3bIX2PmXJlg-1" value="updateSalary(id)" style="text;align=left;verticalAlign=top;spacingLeft=4;spacingRight=4;overflow=hidden;rotatable=0;points=[[0,0.5],[1,0.5]];portConstraint=eastwest;fontSize=14;" parent="zkfFHV4jXpPFQw0GAbJ--6" vertex="1">
          <mxGeometry y="112" width="160" height="26" as="geometry" />
        </mxCell>
        <mxCell id="3z05yCh0M3bIX2PmXJlg-18" value="updateSales()" style="text;align=left;verticalAlign=top;spacingLeft=4;spacingRight=4;overflow=hidden;rotatable=0;points=[[0,0.5],[1,0.5]];portConstraint=eastwest;fontSize=14;" parent="zkfFHV4jXpPFQw0GAbJ--6" vertex="1">
          <mxGeometry y="138" width="160" height="26" as="geometry" />
        </mxCell>
        <mxCell id="3z05yCh0M3bIX2PmXJlg-19" value="placeSalesOrder()" style="text;align=left;verticalAlign=top;spacingLeft=4;spacingRight=4;overflow=hidden;rotatable=0;points=[[0,0.5],[1,0.5]];portConstraint=eastwest;fontSize=14;" parent="zkfFHV4jXpPFQw0GAbJ--6" vertex="1">
          <mxGeometry y="164" width="160" height="26" as="geometry" />
        </mxCell>
        <mxCell id="TpkA-6NRBsBNsw0Zjosy-23" value="giveBonus(id)" style="text;align=left;verticalAlign=top;spacingLeft=4;spacingRight=4;overflow=hidden;rotatable=0;points=[[0,0.5],[1,0.5]];portConstraint=eastwest;fontSize=14;" parent="zkfFHV4jXpPFQw0GAbJ--6" vertex="1">
          <mxGeometry y="190" width="160" height="26" as="geometry" />
        </mxCell>
        <mxCell id="TpkA-6NRBsBNsw0Zjosy-24" value="deductSalary(id)" style="text;align=left;verticalAlign=top;spacingLeft=4;spacingRight=4;overflow=hidden;rotatable=0;points=[[0,0.5],[1,0.5]];portConstraint=eastwest;fontSize=14;" parent="zkfFHV4jXpPFQw0GAbJ--6" vertex="1">
          <mxGeometry y="216" width="160" height="26" as="geometry" />
        </mxCell>
        <mxCell id="zkfFHV4jXpPFQw0GAbJ--17" value="Customer" style="swimlane;fontStyle=0;align=center;verticalAlign=top;childLayout=stackLayout;horizontal=1;startSize=26;horizontalStack=0;resizeParent=1;resizeLast=0;collapsible=1;marginBottom=0;rounded=0;shadow=0;strokeWidth=1;fontSize=14;" parent="WIyWlLk6GJQsqaUBKTNV-1" vertex="1">
          <mxGeometry x="870" y="88" width="160" height="216" as="geometry">
            <mxRectangle x="550" y="140" width="160" height="26" as="alternateBounds" />
          </mxGeometry>
        </mxCell>
        <mxCell id="zkfFHV4jXpPFQw0GAbJ--18" value="-Name" style="text;align=left;verticalAlign=top;spacingLeft=4;spacingRight=4;overflow=hidden;rotatable=0;points=[[0,0.5],[1,0.5]];portConstraint=eastwest;fontSize=14;" parent="zkfFHV4jXpPFQw0GAbJ--17" vertex="1">
          <mxGeometry y="26" width="160" height="22" as="geometry" />
        </mxCell>
        <mxCell id="zkfFHV4jXpPFQw0GAbJ--19" value="-Contact" style="text;align=left;verticalAlign=top;spacingLeft=4;spacingRight=4;overflow=hidden;rotatable=0;points=[[0,0.5],[1,0.5]];portConstraint=eastwest;rounded=0;shadow=0;html=0;fontSize=14;" parent="zkfFHV4jXpPFQw0GAbJ--17" vertex="1">
          <mxGeometry y="48" width="160" height="26" as="geometry" />
        </mxCell>
        <mxCell id="TpkA-6NRBsBNsw0Zjosy-21" value="-CNIC" style="text;align=left;verticalAlign=top;spacingLeft=4;spacingRight=4;overflow=hidden;rotatable=0;points=[[0,0.5],[1,0.5]];portConstraint=eastwest;rounded=0;shadow=0;html=0;fontSize=14;" parent="zkfFHV4jXpPFQw0GAbJ--17" vertex="1">
          <mxGeometry y="74" width="160" height="26" as="geometry" />
        </mxCell>
        <mxCell id="zkfFHV4jXpPFQw0GAbJ--20" value="-Address&#xa;" style="text;align=left;verticalAlign=top;spacingLeft=4;spacingRight=4;overflow=hidden;rotatable=0;points=[[0,0.5],[1,0.5]];portConstraint=eastwest;rounded=0;shadow=0;html=0;fontSize=14;" parent="zkfFHV4jXpPFQw0GAbJ--17" vertex="1">
          <mxGeometry y="100" width="160" height="26" as="geometry" />
        </mxCell>
        <mxCell id="TpkA-6NRBsBNsw0Zjosy-4" value="-Contact" style="text;align=left;verticalAlign=top;spacingLeft=4;spacingRight=4;overflow=hidden;rotatable=0;points=[[0,0.5],[1,0.5]];portConstraint=eastwest;rounded=0;shadow=0;html=0;fontSize=14;" parent="zkfFHV4jXpPFQw0GAbJ--17" vertex="1">
          <mxGeometry y="126" width="160" height="26" as="geometry" />
        </mxCell>
        <mxCell id="zkfFHV4jXpPFQw0GAbJ--23" value="" style="line;html=1;strokeWidth=1;align=left;verticalAlign=middle;spacingTop=-1;spacingLeft=3;spacingRight=3;rotatable=0;labelPosition=right;points=[];portConstraint=eastwest;fontSize=14;" parent="zkfFHV4jXpPFQw0GAbJ--17" vertex="1">
          <mxGeometry y="152" width="160" height="8" as="geometry" />
        </mxCell>
        <mxCell id="zkfFHV4jXpPFQw0GAbJ--24" value="enterDetails()" style="text;align=left;verticalAlign=top;spacingLeft=4;spacingRight=4;overflow=hidden;rotatable=0;points=[[0,0.5],[1,0.5]];portConstraint=eastwest;fontSize=14;" parent="zkfFHV4jXpPFQw0GAbJ--17" vertex="1">
          <mxGeometry y="160" width="160" height="26" as="geometry" />
        </mxCell>
        <mxCell id="zkfFHV4jXpPFQw0GAbJ--25" value="editDetails()" style="text;align=left;verticalAlign=top;spacingLeft=4;spacingRight=4;overflow=hidden;rotatable=0;points=[[0,0.5],[1,0.5]];portConstraint=eastwest;fontSize=14;" parent="zkfFHV4jXpPFQw0GAbJ--17" vertex="1">
          <mxGeometry y="186" width="160" height="24" as="geometry" />
        </mxCell>
        <mxCell id="kFfvKU7xWy5KH7vrhpyQ-9" value="Inventory" style="swimlane;fontStyle=0;align=center;verticalAlign=top;childLayout=stackLayout;horizontal=1;startSize=26;horizontalStack=0;resizeParent=1;resizeLast=0;collapsible=1;marginBottom=0;rounded=0;shadow=0;strokeWidth=1;fontSize=14;" parent="WIyWlLk6GJQsqaUBKTNV-1" vertex="1">
          <mxGeometry x="-150" y="120" width="160" height="212" as="geometry">
            <mxRectangle x="550" y="140" width="160" height="26" as="alternateBounds" />
          </mxGeometry>
        </mxCell>
        <mxCell id="kFfvKU7xWy5KH7vrhpyQ-15" value="" style="line;html=1;strokeWidth=1;align=left;verticalAlign=middle;spacingTop=-1;spacingLeft=3;spacingRight=3;rotatable=0;labelPosition=right;points=[];portConstraint=eastwest;fontSize=14;" parent="kFfvKU7xWy5KH7vrhpyQ-9" vertex="1">
          <mxGeometry y="26" width="160" height="8" as="geometry" />
        </mxCell>
        <mxCell id="kFfvKU7xWy5KH7vrhpyQ-16" value="updateIngredients(ingredient)" style="text;align=left;verticalAlign=top;spacingLeft=4;spacingRight=4;overflow=hidden;rotatable=0;points=[[0,0.5],[1,0.5]];portConstraint=eastwest;fontSize=14;" parent="kFfvKU7xWy5KH7vrhpyQ-9" vertex="1">
          <mxGeometry y="34" width="160" height="26" as="geometry" />
        </mxCell>
        <mxCell id="kFfvKU7xWy5KH7vrhpyQ-17" value="updateBakeryItems(item)" style="text;align=left;verticalAlign=top;spacingLeft=4;spacingRight=4;overflow=hidden;rotatable=0;points=[[0,0.5],[1,0.5]];portConstraint=eastwest;fontSize=14;" parent="kFfvKU7xWy5KH7vrhpyQ-9" vertex="1">
          <mxGeometry y="60" width="160" height="26" as="geometry" />
        </mxCell>
        <mxCell id="TpkA-6NRBsBNsw0Zjosy-25" value="viewIngredients()" style="text;align=left;verticalAlign=top;spacingLeft=4;spacingRight=4;overflow=hidden;rotatable=0;points=[[0,0.5],[1,0.5]];portConstraint=eastwest;fontSize=14;" parent="kFfvKU7xWy5KH7vrhpyQ-9" vertex="1">
          <mxGeometry y="86" width="160" height="26" as="geometry" />
        </mxCell>
        <mxCell id="TpkA-6NRBsBNsw0Zjosy-26" value="addIngredients()" style="text;align=left;verticalAlign=top;spacingLeft=4;spacingRight=4;overflow=hidden;rotatable=0;points=[[0,0.5],[1,0.5]];portConstraint=eastwest;fontSize=14;" parent="kFfvKU7xWy5KH7vrhpyQ-9" vertex="1">
          <mxGeometry y="112" width="160" height="26" as="geometry" />
        </mxCell>
        <mxCell id="kFfvKU7xWy5KH7vrhpyQ-18" value="Cart&#xa;" style="swimlane;fontStyle=0;align=center;verticalAlign=top;childLayout=stackLayout;horizontal=1;startSize=26;horizontalStack=0;resizeParent=1;resizeLast=0;collapsible=1;marginBottom=0;rounded=0;shadow=0;strokeWidth=1;fontSize=14;" parent="WIyWlLk6GJQsqaUBKTNV-1" vertex="1">
          <mxGeometry x="600" y="148" width="160" height="216" as="geometry">
            <mxRectangle x="550" y="140" width="160" height="26" as="alternateBounds" />
          </mxGeometry>
        </mxCell>
        <mxCell id="kFfvKU7xWy5KH7vrhpyQ-19" value="-CartNo" style="text;align=left;verticalAlign=top;spacingLeft=4;spacingRight=4;overflow=hidden;rotatable=0;points=[[0,0.5],[1,0.5]];portConstraint=eastwest;fontSize=14;" parent="kFfvKU7xWy5KH7vrhpyQ-18" vertex="1">
          <mxGeometry y="26" width="160" height="22" as="geometry" />
        </mxCell>
        <mxCell id="kFfvKU7xWy5KH7vrhpyQ-24" value="" style="line;html=1;strokeWidth=1;align=left;verticalAlign=middle;spacingTop=-1;spacingLeft=3;spacingRight=3;rotatable=0;labelPosition=right;points=[];portConstraint=eastwest;fontSize=14;" parent="kFfvKU7xWy5KH7vrhpyQ-18" vertex="1">
          <mxGeometry y="48" width="160" height="8" as="geometry" />
        </mxCell>
        <mxCell id="kFfvKU7xWy5KH7vrhpyQ-25" value="insertItem()" style="text;align=left;verticalAlign=top;spacingLeft=4;spacingRight=4;overflow=hidden;rotatable=0;points=[[0,0.5],[1,0.5]];portConstraint=eastwest;fontSize=14;" parent="kFfvKU7xWy5KH7vrhpyQ-18" vertex="1">
          <mxGeometry y="56" width="160" height="26" as="geometry" />
        </mxCell>
        <mxCell id="kFfvKU7xWy5KH7vrhpyQ-26" value="deleteItem()" style="text;align=left;verticalAlign=top;spacingLeft=4;spacingRight=4;overflow=hidden;rotatable=0;points=[[0,0.5],[1,0.5]];portConstraint=eastwest;fontSize=14;" parent="kFfvKU7xWy5KH7vrhpyQ-18" vertex="1">
          <mxGeometry y="82" width="160" height="26" as="geometry" />
        </mxCell>
        <mxCell id="kFfvKU7xWy5KH7vrhpyQ-27" value="Payment" style="swimlane;fontStyle=0;align=center;verticalAlign=top;childLayout=stackLayout;horizontal=1;startSize=26;horizontalStack=0;resizeParent=1;resizeLast=0;collapsible=1;marginBottom=0;rounded=0;shadow=0;strokeWidth=1;fontSize=14;" parent="WIyWlLk6GJQsqaUBKTNV-1" vertex="1">
          <mxGeometry x="590" y="-440" width="150" height="160" as="geometry">
            <mxRectangle x="550" y="140" width="160" height="26" as="alternateBounds" />
          </mxGeometry>
        </mxCell>
        <mxCell id="kFfvKU7xWy5KH7vrhpyQ-28" value="#Amount" style="text;align=left;verticalAlign=top;spacingLeft=4;spacingRight=4;overflow=hidden;rotatable=0;points=[[0,0.5],[1,0.5]];portConstraint=eastwest;fontSize=14;" parent="kFfvKU7xWy5KH7vrhpyQ-27" vertex="1">
          <mxGeometry y="26" width="150" height="22" as="geometry" />
        </mxCell>
        <mxCell id="kFfvKU7xWy5KH7vrhpyQ-29" value="#Status" style="text;align=left;verticalAlign=top;spacingLeft=4;spacingRight=4;overflow=hidden;rotatable=0;points=[[0,0.5],[1,0.5]];portConstraint=eastwest;rounded=0;shadow=0;html=0;fontSize=14;" parent="kFfvKU7xWy5KH7vrhpyQ-27" vertex="1">
          <mxGeometry y="48" width="150" height="26" as="geometry" />
        </mxCell>
        <mxCell id="kFfvKU7xWy5KH7vrhpyQ-33" value="" style="line;html=1;strokeWidth=1;align=left;verticalAlign=middle;spacingTop=-1;spacingLeft=3;spacingRight=3;rotatable=0;labelPosition=right;points=[];portConstraint=eastwest;fontSize=14;" parent="kFfvKU7xWy5KH7vrhpyQ-27" vertex="1">
          <mxGeometry y="74" width="150" height="8" as="geometry" />
        </mxCell>
        <mxCell id="kFfvKU7xWy5KH7vrhpyQ-35" value="choosePaymentMethod()" style="text;align=left;verticalAlign=top;spacingLeft=4;spacingRight=4;overflow=hidden;rotatable=0;points=[[0,0.5],[1,0.5]];portConstraint=eastwest;fontSize=14;" parent="kFfvKU7xWy5KH7vrhpyQ-27" vertex="1">
          <mxGeometry y="82" width="150" height="26" as="geometry" />
        </mxCell>
        <mxCell id="kFfvKU7xWy5KH7vrhpyQ-36" value="Order" style="swimlane;fontStyle=0;align=center;verticalAlign=top;childLayout=stackLayout;horizontal=1;startSize=26;horizontalStack=0;resizeParent=1;resizeLast=0;collapsible=1;marginBottom=0;rounded=0;shadow=0;strokeWidth=1;fontSize=14;" parent="WIyWlLk6GJQsqaUBKTNV-1" vertex="1">
          <mxGeometry x="610" y="-156" width="170" height="186" as="geometry">
            <mxRectangle x="550" y="140" width="160" height="26" as="alternateBounds" />
          </mxGeometry>
        </mxCell>
        <mxCell id="kFfvKU7xWy5KH7vrhpyQ-37" value="-orderNumber" style="text;align=left;verticalAlign=top;spacingLeft=4;spacingRight=4;overflow=hidden;rotatable=0;points=[[0,0.5],[1,0.5]];portConstraint=eastwest;fontSize=14;" parent="kFfvKU7xWy5KH7vrhpyQ-36" vertex="1">
          <mxGeometry y="26" width="170" height="22" as="geometry" />
        </mxCell>
        <mxCell id="kFfvKU7xWy5KH7vrhpyQ-38" value="-amount" style="text;align=left;verticalAlign=top;spacingLeft=4;spacingRight=4;overflow=hidden;rotatable=0;points=[[0,0.5],[1,0.5]];portConstraint=eastwest;rounded=0;shadow=0;html=0;fontSize=14;" parent="kFfvKU7xWy5KH7vrhpyQ-36" vertex="1">
          <mxGeometry y="48" width="170" height="26" as="geometry" />
        </mxCell>
        <mxCell id="kFfvKU7xWy5KH7vrhpyQ-206" value="-status" style="text;align=left;verticalAlign=top;spacingLeft=4;spacingRight=4;overflow=hidden;rotatable=0;points=[[0,0.5],[1,0.5]];portConstraint=eastwest;rounded=0;shadow=0;html=0;fontSize=14;" parent="kFfvKU7xWy5KH7vrhpyQ-36" vertex="1">
          <mxGeometry y="74" width="170" height="26" as="geometry" />
        </mxCell>
        <mxCell id="kFfvKU7xWy5KH7vrhpyQ-42" value="" style="line;html=1;strokeWidth=1;align=left;verticalAlign=middle;spacingTop=-1;spacingLeft=3;spacingRight=3;rotatable=0;labelPosition=right;points=[];portConstraint=eastwest;fontSize=14;" parent="kFfvKU7xWy5KH7vrhpyQ-36" vertex="1">
          <mxGeometry y="100" width="170" height="8" as="geometry" />
        </mxCell>
        <mxCell id="kFfvKU7xWy5KH7vrhpyQ-43" value="placeOrder(items)" style="text;align=left;verticalAlign=top;spacingLeft=4;spacingRight=4;overflow=hidden;rotatable=0;points=[[0,0.5],[1,0.5]];portConstraint=eastwest;fontSize=14;" parent="kFfvKU7xWy5KH7vrhpyQ-36" vertex="1">
          <mxGeometry y="108" width="170" height="26" as="geometry" />
        </mxCell>
        <mxCell id="kFfvKU7xWy5KH7vrhpyQ-207" value="cancelOrder(orderNumber)" style="text;align=left;verticalAlign=top;spacingLeft=4;spacingRight=4;overflow=hidden;rotatable=0;points=[[0,0.5],[1,0.5]];portConstraint=eastwest;fontSize=14;" parent="kFfvKU7xWy5KH7vrhpyQ-36" vertex="1">
          <mxGeometry y="134" width="170" height="26" as="geometry" />
        </mxCell>
        <mxCell id="TpkA-6NRBsBNsw0Zjosy-22" value="trackOrder(orderNumber)" style="text;align=left;verticalAlign=top;spacingLeft=4;spacingRight=4;overflow=hidden;rotatable=0;points=[[0,0.5],[1,0.5]];portConstraint=eastwest;fontSize=14;" parent="kFfvKU7xWy5KH7vrhpyQ-36" vertex="1">
          <mxGeometry y="160" width="170" height="26" as="geometry" />
        </mxCell>
        <mxCell id="kFfvKU7xWy5KH7vrhpyQ-46" value="" style="endArrow=diamondThin;endFill=1;endSize=24;html=1;rounded=0;entryX=0;entryY=0.5;entryDx=0;entryDy=0;fillColor=#1ba1e2;strokeColor=#006EAF;edgeStyle=orthogonalEdgeStyle;fontSize=14;" parent="WIyWlLk6GJQsqaUBKTNV-1" edge="1">
          <mxGeometry width="160" relative="1" as="geometry">
            <mxPoint x="10" y="127" as="sourcePoint" />
            <mxPoint x="255" y="127" as="targetPoint" />
            <Array as="points">
              <mxPoint x="10" y="127" />
            </Array>
          </mxGeometry>
        </mxCell>
        <mxCell id="kFfvKU7xWy5KH7vrhpyQ-47" value="1" style="text;html=1;align=center;verticalAlign=middle;resizable=0;points=[];autosize=1;strokeColor=none;fillColor=none;fontSize=14;" parent="WIyWlLk6GJQsqaUBKTNV-1" vertex="1">
          <mxGeometry x="225" y="148" width="30" height="30" as="geometry" />
        </mxCell>
        <mxCell id="kFfvKU7xWy5KH7vrhpyQ-48" value="1" style="text;html=1;align=center;verticalAlign=middle;resizable=0;points=[];autosize=1;strokeColor=none;fillColor=none;fontSize=14;" parent="WIyWlLk6GJQsqaUBKTNV-1" vertex="1">
          <mxGeometry x="155" y="148" width="30" height="30" as="geometry" />
        </mxCell>
        <mxCell id="kFfvKU7xWy5KH7vrhpyQ-49" value="" style="text;strokeColor=none;fillColor=none;align=left;verticalAlign=middle;spacingTop=-1;spacingLeft=4;spacingRight=4;rotatable=0;labelPosition=right;points=[];portConstraint=eastwest;fontSize=14;" parent="WIyWlLk6GJQsqaUBKTNV-1" vertex="1">
          <mxGeometry x="-170" y="226" width="20" height="14" as="geometry" />
        </mxCell>
        <mxCell id="kFfvKU7xWy5KH7vrhpyQ-52" value="1" style="text;html=1;align=center;verticalAlign=middle;resizable=0;points=[];autosize=1;strokeColor=none;fillColor=none;fontSize=14;" parent="WIyWlLk6GJQsqaUBKTNV-1" vertex="1">
          <mxGeometry x="215" y="80" width="30" height="30" as="geometry" />
        </mxCell>
        <mxCell id="kFfvKU7xWy5KH7vrhpyQ-55" value="BakeryItems&#xa;" style="swimlane;fontStyle=0;align=center;verticalAlign=top;childLayout=stackLayout;horizontal=1;startSize=26;horizontalStack=0;resizeParent=1;resizeLast=0;collapsible=1;marginBottom=0;rounded=0;shadow=0;strokeWidth=1;fontSize=14;" parent="WIyWlLk6GJQsqaUBKTNV-1" vertex="1">
          <mxGeometry x="-160" y="-150" width="160" height="240" as="geometry">
            <mxRectangle x="550" y="140" width="160" height="26" as="alternateBounds" />
          </mxGeometry>
        </mxCell>
        <mxCell id="kFfvKU7xWy5KH7vrhpyQ-56" value="-number&#xa;" style="text;align=left;verticalAlign=top;spacingLeft=4;spacingRight=4;overflow=hidden;rotatable=0;points=[[0,0.5],[1,0.5]];portConstraint=eastwest;fontSize=14;" parent="kFfvKU7xWy5KH7vrhpyQ-55" vertex="1">
          <mxGeometry y="26" width="160" height="22" as="geometry" />
        </mxCell>
        <mxCell id="kFfvKU7xWy5KH7vrhpyQ-57" value="-quantity" style="text;align=left;verticalAlign=top;spacingLeft=4;spacingRight=4;overflow=hidden;rotatable=0;points=[[0,0.5],[1,0.5]];portConstraint=eastwest;rounded=0;shadow=0;html=0;fontSize=14;" parent="kFfvKU7xWy5KH7vrhpyQ-55" vertex="1">
          <mxGeometry y="48" width="160" height="26" as="geometry" />
        </mxCell>
        <mxCell id="kFfvKU7xWy5KH7vrhpyQ-58" value="-review" style="text;align=left;verticalAlign=top;spacingLeft=4;spacingRight=4;overflow=hidden;rotatable=0;points=[[0,0.5],[1,0.5]];portConstraint=eastwest;rounded=0;shadow=0;html=0;fontSize=14;" parent="kFfvKU7xWy5KH7vrhpyQ-55" vertex="1">
          <mxGeometry y="74" width="160" height="26" as="geometry" />
        </mxCell>
        <mxCell id="kFfvKU7xWy5KH7vrhpyQ-59" value="-name" style="text;align=left;verticalAlign=top;spacingLeft=4;spacingRight=4;overflow=hidden;rotatable=0;points=[[0,0.5],[1,0.5]];portConstraint=eastwest;rounded=0;shadow=0;html=0;fontSize=14;" parent="kFfvKU7xWy5KH7vrhpyQ-55" vertex="1">
          <mxGeometry y="100" width="160" height="26" as="geometry" />
        </mxCell>
        <mxCell id="kFfvKU7xWy5KH7vrhpyQ-60" value="-condition" style="text;align=left;verticalAlign=top;spacingLeft=4;spacingRight=4;overflow=hidden;rotatable=0;points=[[0,0.5],[1,0.5]];portConstraint=eastwest;rounded=0;shadow=0;html=0;fontSize=14;" parent="kFfvKU7xWy5KH7vrhpyQ-55" vertex="1">
          <mxGeometry y="126" width="160" height="26" as="geometry" />
        </mxCell>
        <mxCell id="kFfvKU7xWy5KH7vrhpyQ-62" value="-price" style="text;align=left;verticalAlign=top;spacingLeft=4;spacingRight=4;overflow=hidden;rotatable=0;points=[[0,0.5],[1,0.5]];portConstraint=eastwest;fontSize=14;" parent="kFfvKU7xWy5KH7vrhpyQ-55" vertex="1">
          <mxGeometry y="152" width="160" height="26" as="geometry" />
        </mxCell>
        <mxCell id="kFfvKU7xWy5KH7vrhpyQ-222" value="-discount" style="text;align=left;verticalAlign=top;spacingLeft=4;spacingRight=4;overflow=hidden;rotatable=0;points=[[0,0.5],[1,0.5]];portConstraint=eastwest;fontSize=14;" parent="kFfvKU7xWy5KH7vrhpyQ-55" vertex="1">
          <mxGeometry y="178" width="160" height="26" as="geometry" />
        </mxCell>
        <mxCell id="kFfvKU7xWy5KH7vrhpyQ-61" value="" style="line;html=1;strokeWidth=1;align=left;verticalAlign=middle;spacingTop=-1;spacingLeft=3;spacingRight=3;rotatable=0;labelPosition=right;points=[];portConstraint=eastwest;fontSize=14;" parent="kFfvKU7xWy5KH7vrhpyQ-55" vertex="1">
          <mxGeometry y="204" width="160" height="8" as="geometry" />
        </mxCell>
        <mxCell id="kFfvKU7xWy5KH7vrhpyQ-63" value="updatePrice(price)" style="text;align=left;verticalAlign=top;spacingLeft=4;spacingRight=4;overflow=hidden;rotatable=0;points=[[0,0.5],[1,0.5]];portConstraint=eastwest;fontSize=14;" parent="kFfvKU7xWy5KH7vrhpyQ-55" vertex="1">
          <mxGeometry y="212" width="160" height="26" as="geometry" />
        </mxCell>
        <mxCell id="kFfvKU7xWy5KH7vrhpyQ-67" value="n" style="text;html=1;align=center;verticalAlign=middle;resizable=0;points=[];autosize=1;strokeColor=none;fillColor=none;fontSize=14;" parent="WIyWlLk6GJQsqaUBKTNV-1" vertex="1">
          <mxGeometry x="185" y="-2" width="30" height="30" as="geometry" />
        </mxCell>
        <mxCell id="kFfvKU7xWy5KH7vrhpyQ-69" value="" style="endArrow=diamondThin;endFill=0;endSize=24;html=1;rounded=0;edgeStyle=orthogonalEdgeStyle;entryX=0;entryY=0.5;entryDx=0;entryDy=0;exitX=0;exitY=0.5;exitDx=0;exitDy=0;fillColor=#60a917;strokeColor=#2D7600;fontSize=14;" parent="WIyWlLk6GJQsqaUBKTNV-1" source="kFfvKU7xWy5KH7vrhpyQ-60" edge="1">
          <mxGeometry width="160" relative="1" as="geometry">
            <mxPoint x="-20" y="-10" as="sourcePoint" />
            <mxPoint x="-150" y="159" as="targetPoint" />
            <Array as="points">
              <mxPoint x="-190" y="-11" />
              <mxPoint x="-190" y="181" />
            </Array>
          </mxGeometry>
        </mxCell>
        <mxCell id="kFfvKU7xWy5KH7vrhpyQ-232" value="1" style="edgeLabel;html=1;align=center;verticalAlign=middle;resizable=0;points=[];fontSize=14;" parent="kFfvKU7xWy5KH7vrhpyQ-69" vertex="1" connectable="0">
          <mxGeometry x="0.6997" y="1" relative="1" as="geometry">
            <mxPoint as="offset" />
          </mxGeometry>
        </mxCell>
        <mxCell id="kFfvKU7xWy5KH7vrhpyQ-233" value="0..*" style="edgeLabel;html=1;align=center;verticalAlign=middle;resizable=0;points=[];fontSize=14;" parent="kFfvKU7xWy5KH7vrhpyQ-69" vertex="1" connectable="0">
          <mxGeometry x="-0.8634" y="-2" relative="1" as="geometry">
            <mxPoint as="offset" />
          </mxGeometry>
        </mxCell>
        <mxCell id="kFfvKU7xWy5KH7vrhpyQ-70" value="items can be not present in inventory but their info will be stored that these items should be in the bakery" style="text;html=1;align=center;verticalAlign=middle;resizable=0;points=[];autosize=1;strokeColor=none;fillColor=none;fontSize=14;" parent="WIyWlLk6GJQsqaUBKTNV-1" vertex="1">
          <mxGeometry x="-625" y="-230" width="670" height="30" as="geometry" />
        </mxCell>
        <mxCell id="kFfvKU7xWy5KH7vrhpyQ-75" value="" style="endArrow=diamondThin;endFill=1;endSize=24;html=1;rounded=0;exitX=0;exitY=0.5;exitDx=0;exitDy=0;entryX=1;entryY=0.75;entryDx=0;entryDy=0;fillColor=#1ba1e2;strokeColor=#006EAF;fontSize=14;" parent="WIyWlLk6GJQsqaUBKTNV-1" source="kFfvKU7xWy5KH7vrhpyQ-19" target="zkfFHV4jXpPFQw0GAbJ--0" edge="1">
          <mxGeometry width="160" relative="1" as="geometry">
            <mxPoint x="410" y="190" as="sourcePoint" />
            <mxPoint x="420" y="159" as="targetPoint" />
          </mxGeometry>
        </mxCell>
        <mxCell id="kFfvKU7xWy5KH7vrhpyQ-184" value="1" style="edgeLabel;html=1;align=center;verticalAlign=middle;resizable=0;points=[];fontSize=14;" parent="kFfvKU7xWy5KH7vrhpyQ-75" vertex="1" connectable="0">
          <mxGeometry x="0.5692" relative="1" as="geometry">
            <mxPoint as="offset" />
          </mxGeometry>
        </mxCell>
        <mxCell id="kFfvKU7xWy5KH7vrhpyQ-185" value="0..*" style="edgeLabel;html=1;align=center;verticalAlign=middle;resizable=0;points=[];fontSize=14;" parent="kFfvKU7xWy5KH7vrhpyQ-75" vertex="1" connectable="0">
          <mxGeometry x="-0.8105" y="1" relative="1" as="geometry">
            <mxPoint as="offset" />
          </mxGeometry>
        </mxCell>
        <mxCell id="kFfvKU7xWy5KH7vrhpyQ-76" value="Employee" style="swimlane;fontStyle=0;align=center;verticalAlign=top;childLayout=stackLayout;horizontal=1;startSize=26;horizontalStack=0;resizeParent=1;resizeLast=0;collapsible=1;marginBottom=0;rounded=0;shadow=0;strokeWidth=1;fontSize=14;" parent="WIyWlLk6GJQsqaUBKTNV-1" vertex="1">
          <mxGeometry x="610" y="400" width="160" height="164" as="geometry">
            <mxRectangle x="130" y="380" width="160" height="26" as="alternateBounds" />
          </mxGeometry>
        </mxCell>
        <mxCell id="kFfvKU7xWy5KH7vrhpyQ-77" value="#id" style="text;align=left;verticalAlign=top;spacingLeft=4;spacingRight=4;overflow=hidden;rotatable=0;points=[[0,0.5],[1,0.5]];portConstraint=eastwest;fontSize=14;" parent="kFfvKU7xWy5KH7vrhpyQ-76" vertex="1">
          <mxGeometry y="26" width="160" height="26" as="geometry" />
        </mxCell>
        <mxCell id="KM6Vmpp91FJNSVNe-2rK-7" value="#name&#xa;" style="text;align=left;verticalAlign=top;spacingLeft=4;spacingRight=4;overflow=hidden;rotatable=0;points=[[0,0.5],[1,0.5]];portConstraint=eastwest;rounded=0;shadow=0;html=0;fontSize=14;" parent="kFfvKU7xWy5KH7vrhpyQ-76" vertex="1">
          <mxGeometry y="52" width="160" height="26" as="geometry" />
        </mxCell>
        <mxCell id="kFfvKU7xWy5KH7vrhpyQ-78" value="#salary" style="text;align=left;verticalAlign=top;spacingLeft=4;spacingRight=4;overflow=hidden;rotatable=0;points=[[0,0.5],[1,0.5]];portConstraint=eastwest;rounded=0;shadow=0;html=0;fontSize=14;" parent="kFfvKU7xWy5KH7vrhpyQ-76" vertex="1">
          <mxGeometry y="78" width="160" height="26" as="geometry" />
        </mxCell>
        <mxCell id="KM6Vmpp91FJNSVNe-2rK-0" value="#workHours&#xa;" style="text;align=left;verticalAlign=top;spacingLeft=4;spacingRight=4;overflow=hidden;rotatable=0;points=[[0,0.5],[1,0.5]];portConstraint=eastwest;rounded=0;shadow=0;html=0;fontSize=14;" parent="kFfvKU7xWy5KH7vrhpyQ-76" vertex="1">
          <mxGeometry y="104" width="160" height="26" as="geometry" />
        </mxCell>
        <mxCell id="kFfvKU7xWy5KH7vrhpyQ-79" value="" style="line;html=1;strokeWidth=1;align=left;verticalAlign=middle;spacingTop=-1;spacingLeft=3;spacingRight=3;rotatable=0;labelPosition=right;points=[];portConstraint=eastwest;fontSize=14;" parent="kFfvKU7xWy5KH7vrhpyQ-76" vertex="1">
          <mxGeometry y="130" width="160" height="8" as="geometry" />
        </mxCell>
        <mxCell id="3z05yCh0M3bIX2PmXJlg-0" value="getDetails()" style="text;align=left;verticalAlign=top;spacingLeft=4;spacingRight=4;overflow=hidden;rotatable=0;points=[[0,0.5],[1,0.5]];portConstraint=eastwest;fontSize=14;" parent="kFfvKU7xWy5KH7vrhpyQ-76" vertex="1">
          <mxGeometry y="138" width="160" height="26" as="geometry" />
        </mxCell>
        <mxCell id="kFfvKU7xWy5KH7vrhpyQ-82" value="CustomerSupport" style="swimlane;fontStyle=0;align=center;verticalAlign=top;childLayout=stackLayout;horizontal=1;startSize=26;horizontalStack=0;resizeParent=1;resizeLast=0;collapsible=1;marginBottom=0;rounded=0;shadow=0;strokeWidth=1;fontSize=14;" parent="WIyWlLk6GJQsqaUBKTNV-1" vertex="1">
          <mxGeometry x="500" y="620" width="160" height="216" as="geometry">
            <mxRectangle x="550" y="140" width="160" height="26" as="alternateBounds" />
          </mxGeometry>
        </mxCell>
        <mxCell id="kFfvKU7xWy5KH7vrhpyQ-88" value="" style="line;html=1;strokeWidth=1;align=left;verticalAlign=middle;spacingTop=-1;spacingLeft=3;spacingRight=3;rotatable=0;labelPosition=right;points=[];portConstraint=eastwest;fontSize=14;" parent="kFfvKU7xWy5KH7vrhpyQ-82" vertex="1">
          <mxGeometry y="26" width="160" height="8" as="geometry" />
        </mxCell>
        <mxCell id="kFfvKU7xWy5KH7vrhpyQ-89" value="sendQuery()" style="text;align=left;verticalAlign=top;spacingLeft=4;spacingRight=4;overflow=hidden;rotatable=0;points=[[0,0.5],[1,0.5]];portConstraint=eastwest;fontSize=14;" parent="kFfvKU7xWy5KH7vrhpyQ-82" vertex="1">
          <mxGeometry y="34" width="160" height="26" as="geometry" />
        </mxCell>
        <mxCell id="kFfvKU7xWy5KH7vrhpyQ-91" value="Rider" style="swimlane;fontStyle=0;align=center;verticalAlign=top;childLayout=stackLayout;horizontal=1;startSize=26;horizontalStack=0;resizeParent=1;resizeLast=0;collapsible=1;marginBottom=0;rounded=0;shadow=0;strokeWidth=1;fontSize=14;" parent="WIyWlLk6GJQsqaUBKTNV-1" vertex="1">
          <mxGeometry x="690" y="620" width="160" height="216" as="geometry">
            <mxRectangle x="550" y="140" width="160" height="26" as="alternateBounds" />
          </mxGeometry>
        </mxCell>
        <mxCell id="kFfvKU7xWy5KH7vrhpyQ-97" value="" style="line;html=1;strokeWidth=1;align=left;verticalAlign=middle;spacingTop=-1;spacingLeft=3;spacingRight=3;rotatable=0;labelPosition=right;points=[];portConstraint=eastwest;fontSize=14;" parent="kFfvKU7xWy5KH7vrhpyQ-91" vertex="1">
          <mxGeometry y="26" width="160" height="8" as="geometry" />
        </mxCell>
        <mxCell id="kFfvKU7xWy5KH7vrhpyQ-99" value="sendLocation()" style="text;align=left;verticalAlign=top;spacingLeft=4;spacingRight=4;overflow=hidden;rotatable=0;points=[[0,0.5],[1,0.5]];portConstraint=eastwest;fontSize=14;" parent="kFfvKU7xWy5KH7vrhpyQ-91" vertex="1">
          <mxGeometry y="34" width="160" height="26" as="geometry" />
        </mxCell>
        <mxCell id="kFfvKU7xWy5KH7vrhpyQ-100" value="Labour" style="swimlane;fontStyle=0;align=center;verticalAlign=top;childLayout=stackLayout;horizontal=1;startSize=26;horizontalStack=0;resizeParent=1;resizeLast=0;collapsible=1;marginBottom=0;rounded=0;shadow=0;strokeWidth=1;whiteSpace=wrap;fontSize=14;" parent="WIyWlLk6GJQsqaUBKTNV-1" vertex="1">
          <mxGeometry x="880" y="620" width="160" height="216" as="geometry">
            <mxRectangle x="550" y="140" width="160" height="26" as="alternateBounds" />
          </mxGeometry>
        </mxCell>
        <mxCell id="TpkA-6NRBsBNsw0Zjosy-2" value="-ordersPacked" style="text;align=left;verticalAlign=top;spacingLeft=4;spacingRight=4;overflow=hidden;rotatable=0;points=[[0,0.5],[1,0.5]];portConstraint=eastwest;rounded=0;shadow=0;html=0;fontSize=14;" parent="kFfvKU7xWy5KH7vrhpyQ-100" vertex="1">
          <mxGeometry y="26" width="160" height="26" as="geometry" />
        </mxCell>
        <mxCell id="kFfvKU7xWy5KH7vrhpyQ-106" value="" style="line;html=1;strokeWidth=1;align=left;verticalAlign=middle;spacingTop=-1;spacingLeft=3;spacingRight=3;rotatable=0;labelPosition=right;points=[];portConstraint=eastwest;fontSize=14;" parent="kFfvKU7xWy5KH7vrhpyQ-100" vertex="1">
          <mxGeometry y="52" width="160" height="8" as="geometry" />
        </mxCell>
        <mxCell id="TpkA-6NRBsBNsw0Zjosy-3" value="setOrdersPacked()" style="text;align=left;verticalAlign=top;spacingLeft=4;spacingRight=4;overflow=hidden;rotatable=0;points=[[0,0.5],[1,0.5]];portConstraint=eastwest;rounded=0;shadow=0;html=0;fontSize=14;" parent="kFfvKU7xWy5KH7vrhpyQ-100" vertex="1">
          <mxGeometry y="60" width="160" height="26" as="geometry" />
        </mxCell>
        <mxCell id="kFfvKU7xWy5KH7vrhpyQ-109" value="Extends" style="endArrow=block;endSize=16;endFill=0;html=1;rounded=0;edgeStyle=orthogonalEdgeStyle;elbow=vertical;entryX=0;entryY=0.5;entryDx=0;entryDy=0;exitX=0.5;exitY=0;exitDx=0;exitDy=0;fillColor=#f0a30a;strokeColor=#BD7000;fontSize=14;" parent="WIyWlLk6GJQsqaUBKTNV-1" source="kFfvKU7xWy5KH7vrhpyQ-82" edge="1">
          <mxGeometry width="160" relative="1" as="geometry">
            <mxPoint x="480" y="590" as="sourcePoint" />
            <mxPoint x="610" y="499" as="targetPoint" />
          </mxGeometry>
        </mxCell>
        <mxCell id="kFfvKU7xWy5KH7vrhpyQ-110" value="Extends" style="endArrow=block;endSize=16;endFill=0;html=1;rounded=0;entryX=1;entryY=0.5;entryDx=0;entryDy=0;exitX=0.5;exitY=0;exitDx=0;exitDy=0;fillColor=#f0a30a;strokeColor=#BD7000;fontSize=14;" parent="WIyWlLk6GJQsqaUBKTNV-1" source="kFfvKU7xWy5KH7vrhpyQ-91" edge="1">
          <mxGeometry width="160" relative="1" as="geometry">
            <mxPoint x="760" y="600" as="sourcePoint" />
            <mxPoint x="770.0000000000005" y="499" as="targetPoint" />
          </mxGeometry>
        </mxCell>
        <mxCell id="kFfvKU7xWy5KH7vrhpyQ-111" value="Extends" style="endArrow=block;endSize=16;endFill=0;html=1;rounded=0;entryX=1;entryY=0.5;entryDx=0;entryDy=0;exitX=0.5;exitY=0;exitDx=0;exitDy=0;edgeStyle=orthogonalEdgeStyle;fillColor=#f0a30a;strokeColor=#BD7000;fontSize=14;" parent="WIyWlLk6GJQsqaUBKTNV-1" source="kFfvKU7xWy5KH7vrhpyQ-100" edge="1">
          <mxGeometry width="160" relative="1" as="geometry">
            <mxPoint x="910" y="590" as="sourcePoint" />
            <mxPoint x="770" y="499" as="targetPoint" />
          </mxGeometry>
        </mxCell>
        <mxCell id="kFfvKU7xWy5KH7vrhpyQ-112" value="Kitchen" style="swimlane;fontStyle=0;align=center;verticalAlign=top;childLayout=stackLayout;horizontal=1;startSize=26;horizontalStack=0;resizeParent=1;resizeLast=0;collapsible=1;marginBottom=0;rounded=0;shadow=0;strokeWidth=1;fontSize=14;" parent="WIyWlLk6GJQsqaUBKTNV-1" vertex="1">
          <mxGeometry x="-120" y="400" width="160" height="157" as="geometry">
            <mxRectangle x="550" y="140" width="160" height="26" as="alternateBounds" />
          </mxGeometry>
        </mxCell>
        <mxCell id="kFfvKU7xWy5KH7vrhpyQ-115" value="-Status" style="text;align=left;verticalAlign=top;spacingLeft=4;spacingRight=4;overflow=hidden;rotatable=0;points=[[0,0.5],[1,0.5]];portConstraint=eastwest;rounded=0;shadow=0;html=0;fontSize=14;" parent="kFfvKU7xWy5KH7vrhpyQ-112" vertex="1">
          <mxGeometry y="26" width="160" height="26" as="geometry" />
        </mxCell>
        <mxCell id="kFfvKU7xWy5KH7vrhpyQ-116" value="-updateTime" style="text;align=left;verticalAlign=top;spacingLeft=4;spacingRight=4;overflow=hidden;rotatable=0;points=[[0,0.5],[1,0.5]];portConstraint=eastwest;rounded=0;shadow=0;html=0;fontSize=14;" parent="kFfvKU7xWy5KH7vrhpyQ-112" vertex="1">
          <mxGeometry y="52" width="160" height="26" as="geometry" />
        </mxCell>
        <mxCell id="kFfvKU7xWy5KH7vrhpyQ-118" value="" style="line;html=1;strokeWidth=1;align=left;verticalAlign=middle;spacingTop=-1;spacingLeft=3;spacingRight=3;rotatable=0;labelPosition=right;points=[];portConstraint=eastwest;fontSize=14;" parent="kFfvKU7xWy5KH7vrhpyQ-112" vertex="1">
          <mxGeometry y="78" width="160" height="8" as="geometry" />
        </mxCell>
        <mxCell id="TpkA-6NRBsBNsw0Zjosy-1" value="setStatus()" style="text;align=left;verticalAlign=top;spacingLeft=4;spacingRight=4;overflow=hidden;rotatable=0;points=[[0,0.5],[1,0.5]];portConstraint=eastwest;rounded=0;shadow=0;html=0;fontSize=14;" parent="kFfvKU7xWy5KH7vrhpyQ-112" vertex="1">
          <mxGeometry y="86" width="160" height="26" as="geometry" />
        </mxCell>
        <mxCell id="kFfvKU7xWy5KH7vrhpyQ-121" value="" style="endArrow=diamondThin;endFill=1;endSize=24;html=1;rounded=0;exitX=0.5;exitY=0;exitDx=0;exitDy=0;edgeStyle=orthogonalEdgeStyle;elbow=vertical;fillColor=#1ba1e2;strokeColor=#006EAF;fontSize=14;" parent="WIyWlLk6GJQsqaUBKTNV-1" source="kFfvKU7xWy5KH7vrhpyQ-112" edge="1">
          <mxGeometry width="160" relative="1" as="geometry">
            <mxPoint x="230" y="250" as="sourcePoint" />
            <mxPoint x="260" y="218" as="targetPoint" />
            <Array as="points">
              <mxPoint x="-50" y="400" />
              <mxPoint x="-50" y="370" />
              <mxPoint x="40" y="370" />
              <mxPoint x="40" y="218" />
            </Array>
          </mxGeometry>
        </mxCell>
        <mxCell id="kFfvKU7xWy5KH7vrhpyQ-227" value="1" style="edgeLabel;html=1;align=center;verticalAlign=middle;resizable=0;points=[];fontSize=14;" parent="kFfvKU7xWy5KH7vrhpyQ-121" vertex="1" connectable="0">
          <mxGeometry x="0.7993" y="-2" relative="1" as="geometry">
            <mxPoint as="offset" />
          </mxGeometry>
        </mxCell>
        <mxCell id="kFfvKU7xWy5KH7vrhpyQ-228" value="1" style="edgeLabel;html=1;align=center;verticalAlign=middle;resizable=0;points=[];fontSize=14;" parent="kFfvKU7xWy5KH7vrhpyQ-121" vertex="1" connectable="0">
          <mxGeometry x="-0.8308" y="1" relative="1" as="geometry">
            <mxPoint as="offset" />
          </mxGeometry>
        </mxCell>
        <mxCell id="kFfvKU7xWy5KH7vrhpyQ-122" value="Ingredients" style="swimlane;fontStyle=0;align=center;verticalAlign=top;childLayout=stackLayout;horizontal=1;startSize=26;horizontalStack=0;resizeParent=1;resizeLast=0;collapsible=1;marginBottom=0;rounded=0;shadow=0;strokeWidth=1;fontSize=14;" parent="WIyWlLk6GJQsqaUBKTNV-1" vertex="1">
          <mxGeometry x="-360" y="90" width="160" height="180" as="geometry">
            <mxRectangle x="550" y="140" width="160" height="26" as="alternateBounds" />
          </mxGeometry>
        </mxCell>
        <mxCell id="kFfvKU7xWy5KH7vrhpyQ-123" value="-name" style="text;align=left;verticalAlign=top;spacingLeft=4;spacingRight=4;overflow=hidden;rotatable=0;points=[[0,0.5],[1,0.5]];portConstraint=eastwest;fontSize=14;" parent="kFfvKU7xWy5KH7vrhpyQ-122" vertex="1">
          <mxGeometry y="26" width="160" height="22" as="geometry" />
        </mxCell>
        <mxCell id="kFfvKU7xWy5KH7vrhpyQ-124" value="-number" style="text;align=left;verticalAlign=top;spacingLeft=4;spacingRight=4;overflow=hidden;rotatable=0;points=[[0,0.5],[1,0.5]];portConstraint=eastwest;rounded=0;shadow=0;html=0;fontSize=14;" parent="kFfvKU7xWy5KH7vrhpyQ-122" vertex="1">
          <mxGeometry y="48" width="160" height="26" as="geometry" />
        </mxCell>
        <mxCell id="kFfvKU7xWy5KH7vrhpyQ-125" value="-quantity" style="text;align=left;verticalAlign=top;spacingLeft=4;spacingRight=4;overflow=hidden;rotatable=0;points=[[0,0.5],[1,0.5]];portConstraint=eastwest;rounded=0;shadow=0;html=0;fontSize=14;" parent="kFfvKU7xWy5KH7vrhpyQ-122" vertex="1">
          <mxGeometry y="74" width="160" height="26" as="geometry" />
        </mxCell>
        <mxCell id="TpkA-6NRBsBNsw0Zjosy-18" value="-arrivalStatus" style="text;align=left;verticalAlign=top;spacingLeft=4;spacingRight=4;overflow=hidden;rotatable=0;points=[[0,0.5],[1,0.5]];portConstraint=eastwest;rounded=0;shadow=0;html=0;fontSize=14;" parent="kFfvKU7xWy5KH7vrhpyQ-122" vertex="1">
          <mxGeometry y="100" width="160" height="26" as="geometry" />
        </mxCell>
        <mxCell id="kFfvKU7xWy5KH7vrhpyQ-128" value="" style="line;html=1;strokeWidth=1;align=left;verticalAlign=middle;spacingTop=-1;spacingLeft=3;spacingRight=3;rotatable=0;labelPosition=right;points=[];portConstraint=eastwest;fontSize=14;" parent="kFfvKU7xWy5KH7vrhpyQ-122" vertex="1">
          <mxGeometry y="126" width="160" height="54" as="geometry" />
        </mxCell>
        <mxCell id="kFfvKU7xWy5KH7vrhpyQ-132" value="Recipe" style="swimlane;fontStyle=0;align=center;verticalAlign=top;childLayout=stackLayout;horizontal=1;startSize=26;horizontalStack=0;resizeParent=1;resizeLast=0;collapsible=1;marginBottom=0;rounded=0;shadow=0;strokeWidth=1;fontSize=14;" parent="WIyWlLk6GJQsqaUBKTNV-1" vertex="1">
          <mxGeometry x="-330" y="360" width="160" height="120" as="geometry">
            <mxRectangle x="550" y="140" width="160" height="26" as="alternateBounds" />
          </mxGeometry>
        </mxCell>
        <mxCell id="kFfvKU7xWy5KH7vrhpyQ-133" value="-text" style="text;align=left;verticalAlign=top;spacingLeft=4;spacingRight=4;overflow=hidden;rotatable=0;points=[[0,0.5],[1,0.5]];portConstraint=eastwest;fontSize=14;" parent="kFfvKU7xWy5KH7vrhpyQ-132" vertex="1">
          <mxGeometry y="26" width="160" height="22" as="geometry" />
        </mxCell>
        <mxCell id="kFfvKU7xWy5KH7vrhpyQ-134" value="-ingredients" style="text;align=left;verticalAlign=top;spacingLeft=4;spacingRight=4;overflow=hidden;rotatable=0;points=[[0,0.5],[1,0.5]];portConstraint=eastwest;rounded=0;shadow=0;html=0;fontSize=14;" parent="kFfvKU7xWy5KH7vrhpyQ-132" vertex="1">
          <mxGeometry y="48" width="160" height="26" as="geometry" />
        </mxCell>
        <mxCell id="kFfvKU7xWy5KH7vrhpyQ-138" value="" style="line;html=1;strokeWidth=1;align=left;verticalAlign=middle;spacingTop=-1;spacingLeft=3;spacingRight=3;rotatable=0;labelPosition=right;points=[];portConstraint=eastwest;fontSize=14;" parent="kFfvKU7xWy5KH7vrhpyQ-132" vertex="1">
          <mxGeometry y="74" width="160" height="8" as="geometry" />
        </mxCell>
        <mxCell id="kFfvKU7xWy5KH7vrhpyQ-139" value="updateRecipe()" style="text;align=left;verticalAlign=top;spacingLeft=4;spacingRight=4;overflow=hidden;rotatable=0;points=[[0,0.5],[1,0.5]];portConstraint=eastwest;fontSize=14;" parent="kFfvKU7xWy5KH7vrhpyQ-132" vertex="1">
          <mxGeometry y="82" width="160" height="26" as="geometry" />
        </mxCell>
        <mxCell id="kFfvKU7xWy5KH7vrhpyQ-142" value="" style="endArrow=diamondThin;endFill=1;endSize=24;html=1;rounded=0;fillColor=#1ba1e2;strokeColor=#006EAF;entryX=0;entryY=0.75;entryDx=0;entryDy=0;edgeStyle=orthogonalEdgeStyle;exitX=1;exitY=0.5;exitDx=0;exitDy=0;fontSize=14;" parent="WIyWlLk6GJQsqaUBKTNV-1" source="kFfvKU7xWy5KH7vrhpyQ-134" target="zkfFHV4jXpPFQw0GAbJ--0" edge="1">
          <mxGeometry width="160" relative="1" as="geometry">
            <mxPoint x="-90" y="350" as="sourcePoint" />
            <mxPoint x="70" y="350" as="targetPoint" />
            <Array as="points">
              <mxPoint x="-150" y="421" />
              <mxPoint x="-150" y="350" />
              <mxPoint x="20" y="350" />
              <mxPoint x="20" y="184" />
            </Array>
          </mxGeometry>
        </mxCell>
        <mxCell id="kFfvKU7xWy5KH7vrhpyQ-143" value="" style="endArrow=diamondThin;endFill=1;endSize=24;html=1;rounded=0;exitX=1;exitY=0.5;exitDx=0;exitDy=0;entryX=0;entryY=0.5;entryDx=0;entryDy=0;edgeStyle=orthogonalEdgeStyle;fillColor=#1ba1e2;strokeColor=#006EAF;fontSize=14;" parent="WIyWlLk6GJQsqaUBKTNV-1" edge="1">
          <mxGeometry width="160" relative="1" as="geometry">
            <mxPoint x="-200" y="203.00000000000023" as="sourcePoint" />
            <mxPoint x="-150" y="159" as="targetPoint" />
          </mxGeometry>
        </mxCell>
        <mxCell id="kFfvKU7xWy5KH7vrhpyQ-144" value="Sales&#xa;" style="swimlane;fontStyle=0;align=center;verticalAlign=top;childLayout=stackLayout;horizontal=1;startSize=26;horizontalStack=0;resizeParent=1;resizeLast=0;collapsible=1;marginBottom=0;rounded=0;shadow=0;strokeWidth=1;fontSize=14;" parent="WIyWlLk6GJQsqaUBKTNV-1" vertex="1">
          <mxGeometry x="340" y="332" width="160" height="212" as="geometry">
            <mxRectangle x="550" y="140" width="160" height="26" as="alternateBounds" />
          </mxGeometry>
        </mxCell>
        <mxCell id="kFfvKU7xWy5KH7vrhpyQ-230" value="-budget" style="text;align=left;verticalAlign=top;spacingLeft=4;spacingRight=4;overflow=hidden;rotatable=0;points=[[0,0.5],[1,0.5]];portConstraint=eastwest;fontSize=14;" parent="kFfvKU7xWy5KH7vrhpyQ-144" vertex="1">
          <mxGeometry y="26" width="160" height="22" as="geometry" />
        </mxCell>
        <mxCell id="kFfvKU7xWy5KH7vrhpyQ-150" value="" style="line;html=1;strokeWidth=1;align=left;verticalAlign=middle;spacingTop=-1;spacingLeft=3;spacingRight=3;rotatable=0;labelPosition=right;points=[];portConstraint=eastwest;fontSize=14;" parent="kFfvKU7xWy5KH7vrhpyQ-144" vertex="1">
          <mxGeometry y="48" width="160" height="8" as="geometry" />
        </mxCell>
        <mxCell id="kFfvKU7xWy5KH7vrhpyQ-151" value="trackViaMonth(month)" style="text;align=left;verticalAlign=top;spacingLeft=4;spacingRight=4;overflow=hidden;rotatable=0;points=[[0,0.5],[1,0.5]];portConstraint=eastwest;fontSize=14;" parent="kFfvKU7xWy5KH7vrhpyQ-144" vertex="1">
          <mxGeometry y="56" width="160" height="26" as="geometry" />
        </mxCell>
        <mxCell id="kFfvKU7xWy5KH7vrhpyQ-152" value="trackViaYear(year)" style="text;align=left;verticalAlign=top;spacingLeft=4;spacingRight=4;overflow=hidden;rotatable=0;points=[[0,0.5],[1,0.5]];portConstraint=eastwest;fontSize=14;" parent="kFfvKU7xWy5KH7vrhpyQ-144" vertex="1">
          <mxGeometry y="82" width="160" height="26" as="geometry" />
        </mxCell>
        <mxCell id="kFfvKU7xWy5KH7vrhpyQ-231" value="setBudget(budget)" style="text;align=left;verticalAlign=top;spacingLeft=4;spacingRight=4;overflow=hidden;rotatable=0;points=[[0,0.5],[1,0.5]];portConstraint=eastwest;fontSize=14;" parent="kFfvKU7xWy5KH7vrhpyQ-144" vertex="1">
          <mxGeometry y="108" width="160" height="26" as="geometry" />
        </mxCell>
        <mxCell id="kFfvKU7xWy5KH7vrhpyQ-153" value="" style="endArrow=diamondThin;endFill=1;endSize=24;html=1;rounded=0;edgeStyle=orthogonalEdgeStyle;fillColor=#1ba1e2;strokeColor=#006EAF;entryX=1;entryY=1;entryDx=0;entryDy=0;exitX=0.5;exitY=0;exitDx=0;exitDy=0;fontSize=14;" parent="WIyWlLk6GJQsqaUBKTNV-1" source="kFfvKU7xWy5KH7vrhpyQ-144" target="zkfFHV4jXpPFQw0GAbJ--0" edge="1">
          <mxGeometry width="160" relative="1" as="geometry">
            <mxPoint x="340" y="240" as="sourcePoint" />
            <mxPoint x="500" y="240" as="targetPoint" />
          </mxGeometry>
        </mxCell>
        <mxCell id="kFfvKU7xWy5KH7vrhpyQ-189" value="1" style="edgeLabel;html=1;align=center;verticalAlign=middle;resizable=0;points=[];fontSize=14;" parent="kFfvKU7xWy5KH7vrhpyQ-153" vertex="1" connectable="0">
          <mxGeometry x="0.4379" y="1" relative="1" as="geometry">
            <mxPoint as="offset" />
          </mxGeometry>
        </mxCell>
        <mxCell id="kFfvKU7xWy5KH7vrhpyQ-190" value="0..*" style="edgeLabel;html=1;align=center;verticalAlign=middle;resizable=0;points=[];fontSize=14;" parent="kFfvKU7xWy5KH7vrhpyQ-153" vertex="1" connectable="0">
          <mxGeometry x="-0.6919" relative="1" as="geometry">
            <mxPoint y="-1" as="offset" />
          </mxGeometry>
        </mxCell>
        <mxCell id="kFfvKU7xWy5KH7vrhpyQ-163" value="COD" style="swimlane;fontStyle=0;align=center;verticalAlign=top;childLayout=stackLayout;horizontal=1;startSize=26;horizontalStack=0;resizeParent=1;resizeLast=0;collapsible=1;marginBottom=0;rounded=0;shadow=0;strokeWidth=1;fontSize=14;" parent="WIyWlLk6GJQsqaUBKTNV-1" vertex="1">
          <mxGeometry x="800" y="-540" width="160" height="116" as="geometry">
            <mxRectangle x="550" y="140" width="160" height="26" as="alternateBounds" />
          </mxGeometry>
        </mxCell>
        <mxCell id="kFfvKU7xWy5KH7vrhpyQ-169" value="" style="line;html=1;strokeWidth=1;align=left;verticalAlign=middle;spacingTop=-1;spacingLeft=3;spacingRight=3;rotatable=0;labelPosition=right;points=[];portConstraint=eastwest;fontSize=14;" parent="kFfvKU7xWy5KH7vrhpyQ-163" vertex="1">
          <mxGeometry y="26" width="160" height="8" as="geometry" />
        </mxCell>
        <mxCell id="kFfvKU7xWy5KH7vrhpyQ-194" value="payAmount()" style="text;html=1;align=left;verticalAlign=middle;resizable=0;points=[];autosize=1;strokeColor=none;fillColor=none;fontSize=14;" parent="kFfvKU7xWy5KH7vrhpyQ-163" vertex="1">
          <mxGeometry y="34" width="160" height="30" as="geometry" />
        </mxCell>
        <mxCell id="kFfvKU7xWy5KH7vrhpyQ-172" value="Extends" style="endArrow=block;endSize=16;endFill=0;html=1;rounded=0;edgeStyle=orthogonalEdgeStyle;entryX=0;entryY=0.5;entryDx=0;entryDy=0;exitX=1;exitY=0.5;exitDx=0;exitDy=0;fillColor=#f0a30a;strokeColor=#BD7000;fontSize=14;" parent="WIyWlLk6GJQsqaUBKTNV-1" edge="1">
          <mxGeometry width="160" relative="1" as="geometry">
            <mxPoint x="510.00000000000045" y="-471" as="sourcePoint" />
            <mxPoint x="590" y="-353" as="targetPoint" />
            <Array as="points">
              <mxPoint x="560" y="-471" />
              <mxPoint x="560" y="-353" />
            </Array>
          </mxGeometry>
        </mxCell>
        <mxCell id="kFfvKU7xWy5KH7vrhpyQ-173" value="Extends" style="endArrow=block;endSize=16;endFill=0;html=1;rounded=0;entryX=1;entryY=0.5;entryDx=0;entryDy=0;edgeStyle=orthogonalEdgeStyle;exitX=0.25;exitY=1;exitDx=0;exitDy=0;fillColor=#f0a30a;strokeColor=#BD7000;fontSize=14;" parent="WIyWlLk6GJQsqaUBKTNV-1" source="kFfvKU7xWy5KH7vrhpyQ-163" target="kFfvKU7xWy5KH7vrhpyQ-29" edge="1">
          <mxGeometry width="160" relative="1" as="geometry">
            <mxPoint x="800" y="-635" as="sourcePoint" />
            <mxPoint x="750" y="-353" as="targetPoint" />
          </mxGeometry>
        </mxCell>
        <mxCell id="kFfvKU7xWy5KH7vrhpyQ-154" value="Online" style="swimlane;fontStyle=0;align=center;verticalAlign=top;childLayout=stackLayout;horizontal=1;startSize=26;horizontalStack=0;resizeParent=1;resizeLast=0;collapsible=1;marginBottom=0;rounded=0;shadow=0;strokeWidth=1;fontSize=14;" parent="WIyWlLk6GJQsqaUBKTNV-1" vertex="1">
          <mxGeometry x="350" y="-540" width="160" height="140" as="geometry">
            <mxRectangle x="550" y="140" width="160" height="26" as="alternateBounds" />
          </mxGeometry>
        </mxCell>
        <mxCell id="kFfvKU7xWy5KH7vrhpyQ-155" value="-CardNumber" style="text;align=left;verticalAlign=top;spacingLeft=4;spacingRight=4;overflow=hidden;rotatable=0;points=[[0,0.5],[1,0.5]];portConstraint=eastwest;fontSize=14;" parent="kFfvKU7xWy5KH7vrhpyQ-154" vertex="1">
          <mxGeometry y="26" width="160" height="22" as="geometry" />
        </mxCell>
        <mxCell id="kFfvKU7xWy5KH7vrhpyQ-160" value="" style="line;html=1;strokeWidth=1;align=left;verticalAlign=middle;spacingTop=-1;spacingLeft=3;spacingRight=3;rotatable=0;labelPosition=right;points=[];portConstraint=eastwest;fontSize=14;" parent="kFfvKU7xWy5KH7vrhpyQ-154" vertex="1">
          <mxGeometry y="48" width="160" height="8" as="geometry" />
        </mxCell>
        <mxCell id="kFfvKU7xWy5KH7vrhpyQ-162" value="payCardAmount()" style="text;align=left;verticalAlign=top;spacingLeft=4;spacingRight=4;overflow=hidden;rotatable=0;points=[[0,0.5],[1,0.5]];portConstraint=eastwest;fontSize=14;" parent="kFfvKU7xWy5KH7vrhpyQ-154" vertex="1">
          <mxGeometry y="56" width="160" height="26" as="geometry" />
        </mxCell>
        <mxCell id="kFfvKU7xWy5KH7vrhpyQ-175" value="" style="endArrow=diamondThin;endFill=1;endSize=24;html=1;rounded=0;edgeStyle=orthogonalEdgeStyle;entryX=0.5;entryY=0;entryDx=0;entryDy=0;fillColor=#1ba1e2;strokeColor=#006EAF;exitX=0.5;exitY=1;exitDx=0;exitDy=0;fontSize=14;" parent="WIyWlLk6GJQsqaUBKTNV-1" source="kFfvKU7xWy5KH7vrhpyQ-27" target="kFfvKU7xWy5KH7vrhpyQ-36" edge="1">
          <mxGeometry width="160" relative="1" as="geometry">
            <mxPoint x="730" y="-160" as="sourcePoint" />
            <mxPoint x="490" y="-180" as="targetPoint" />
            <Array as="points">
              <mxPoint x="660" y="-280" />
              <mxPoint x="660" y="-230" />
              <mxPoint x="695" y="-230" />
            </Array>
          </mxGeometry>
        </mxCell>
        <mxCell id="kFfvKU7xWy5KH7vrhpyQ-192" value="1" style="edgeLabel;html=1;align=center;verticalAlign=middle;resizable=0;points=[];fontSize=14;" parent="kFfvKU7xWy5KH7vrhpyQ-175" vertex="1" connectable="0">
          <mxGeometry x="0.6287" y="2" relative="1" as="geometry">
            <mxPoint as="offset" />
          </mxGeometry>
        </mxCell>
        <mxCell id="kFfvKU7xWy5KH7vrhpyQ-193" value="1" style="edgeLabel;html=1;align=center;verticalAlign=middle;resizable=0;points=[];fontSize=14;" parent="kFfvKU7xWy5KH7vrhpyQ-175" vertex="1" connectable="0">
          <mxGeometry x="-0.5793" relative="1" as="geometry">
            <mxPoint as="offset" />
          </mxGeometry>
        </mxCell>
        <mxCell id="kFfvKU7xWy5KH7vrhpyQ-178" value="" style="endArrow=none;html=1;rounded=0;edgeStyle=orthogonalEdgeStyle;entryX=0.5;entryY=1;entryDx=0;entryDy=0;exitX=1;exitY=0.25;exitDx=0;exitDy=0;fontSize=14;" parent="WIyWlLk6GJQsqaUBKTNV-1" source="zkfFHV4jXpPFQw0GAbJ--0" target="zkfFHV4jXpPFQw0GAbJ--6" edge="1">
          <mxGeometry width="50" height="50" relative="1" as="geometry">
            <mxPoint x="445" y="38" as="sourcePoint" />
            <mxPoint x="495" y="-12" as="targetPoint" />
          </mxGeometry>
        </mxCell>
        <mxCell id="kFfvKU7xWy5KH7vrhpyQ-179" value="1" style="edgeLabel;html=1;align=center;verticalAlign=middle;resizable=0;points=[];fontSize=14;" parent="kFfvKU7xWy5KH7vrhpyQ-178" vertex="1" connectable="0">
          <mxGeometry x="-0.8453" relative="1" as="geometry">
            <mxPoint as="offset" />
          </mxGeometry>
        </mxCell>
        <mxCell id="kFfvKU7xWy5KH7vrhpyQ-180" value="1" style="edgeLabel;html=1;align=center;verticalAlign=middle;resizable=0;points=[];fontSize=14;" parent="kFfvKU7xWy5KH7vrhpyQ-178" vertex="1" connectable="0">
          <mxGeometry x="0.8348" y="1" relative="1" as="geometry">
            <mxPoint as="offset" />
          </mxGeometry>
        </mxCell>
        <mxCell id="kFfvKU7xWy5KH7vrhpyQ-181" value="" style="endArrow=none;html=1;rounded=0;entryX=0;entryY=0.5;entryDx=0;entryDy=0;exitX=1;exitY=0.5;exitDx=0;exitDy=0;fontSize=14;" parent="WIyWlLk6GJQsqaUBKTNV-1" target="zkfFHV4jXpPFQw0GAbJ--18" edge="1">
          <mxGeometry width="50" height="50" relative="1" as="geometry">
            <mxPoint x="415" y="127" as="sourcePoint" />
            <mxPoint x="530" y="110" as="targetPoint" />
          </mxGeometry>
        </mxCell>
        <mxCell id="kFfvKU7xWy5KH7vrhpyQ-182" value="1" style="edgeLabel;html=1;align=center;verticalAlign=middle;resizable=0;points=[];fontSize=14;" parent="kFfvKU7xWy5KH7vrhpyQ-181" vertex="1" connectable="0">
          <mxGeometry x="-0.9049" y="-1" relative="1" as="geometry">
            <mxPoint as="offset" />
          </mxGeometry>
        </mxCell>
        <mxCell id="kFfvKU7xWy5KH7vrhpyQ-183" value="0...*" style="edgeLabel;html=1;align=center;verticalAlign=middle;resizable=0;points=[];fontSize=14;" parent="kFfvKU7xWy5KH7vrhpyQ-181" vertex="1" connectable="0">
          <mxGeometry x="0.8913" y="-1" relative="1" as="geometry">
            <mxPoint as="offset" />
          </mxGeometry>
        </mxCell>
        <mxCell id="kFfvKU7xWy5KH7vrhpyQ-186" value="" style="endArrow=none;html=1;rounded=0;exitX=1;exitY=1;exitDx=0;exitDy=0;edgeStyle=orthogonalEdgeStyle;entryX=0;entryY=0.5;entryDx=0;entryDy=0;fontSize=14;" parent="WIyWlLk6GJQsqaUBKTNV-1" source="zkfFHV4jXpPFQw0GAbJ--0" target="kFfvKU7xWy5KH7vrhpyQ-77" edge="1">
          <mxGeometry width="50" height="50" relative="1" as="geometry">
            <mxPoint x="420" y="200" as="sourcePoint" />
            <mxPoint x="540" y="218" as="targetPoint" />
            <Array as="points">
              <mxPoint x="560" y="218" />
              <mxPoint x="560" y="439" />
            </Array>
          </mxGeometry>
        </mxCell>
        <mxCell id="kFfvKU7xWy5KH7vrhpyQ-187" value="1" style="edgeLabel;html=1;align=center;verticalAlign=middle;resizable=0;points=[];fontSize=14;" parent="kFfvKU7xWy5KH7vrhpyQ-186" vertex="1" connectable="0">
          <mxGeometry x="-0.9434" y="1" relative="1" as="geometry">
            <mxPoint as="offset" />
          </mxGeometry>
        </mxCell>
        <mxCell id="kFfvKU7xWy5KH7vrhpyQ-188" value="0..*" style="edgeLabel;html=1;align=center;verticalAlign=middle;resizable=0;points=[];fontSize=14;" parent="kFfvKU7xWy5KH7vrhpyQ-186" vertex="1" connectable="0">
          <mxGeometry x="0.9203" y="-3" relative="1" as="geometry">
            <mxPoint as="offset" />
          </mxGeometry>
        </mxCell>
        <mxCell id="kFfvKU7xWy5KH7vrhpyQ-197" value="Register" style="swimlane;fontStyle=0;align=center;verticalAlign=top;childLayout=stackLayout;horizontal=1;startSize=26;horizontalStack=0;resizeParent=1;resizeLast=0;collapsible=1;marginBottom=0;rounded=0;shadow=0;strokeWidth=1;fontSize=14;" parent="WIyWlLk6GJQsqaUBKTNV-1" vertex="1">
          <mxGeometry x="840" y="-110" width="160" height="140" as="geometry">
            <mxRectangle x="550" y="140" width="160" height="26" as="alternateBounds" />
          </mxGeometry>
        </mxCell>
        <mxCell id="kFfvKU7xWy5KH7vrhpyQ-200" value="" style="line;html=1;strokeWidth=1;align=left;verticalAlign=middle;spacingTop=-1;spacingLeft=3;spacingRight=3;rotatable=0;labelPosition=right;points=[];portConstraint=eastwest;fontSize=14;" parent="kFfvKU7xWy5KH7vrhpyQ-197" vertex="1">
          <mxGeometry y="26" width="160" height="8" as="geometry" />
        </mxCell>
        <mxCell id="kFfvKU7xWy5KH7vrhpyQ-201" value="addOrder(order)" style="text;align=left;verticalAlign=top;spacingLeft=4;spacingRight=4;overflow=hidden;rotatable=0;points=[[0,0.5],[1,0.5]];portConstraint=eastwest;fontSize=14;" parent="kFfvKU7xWy5KH7vrhpyQ-197" vertex="1">
          <mxGeometry y="34" width="160" height="26" as="geometry" />
        </mxCell>
        <mxCell id="kFfvKU7xWy5KH7vrhpyQ-202" value="" style="endArrow=diamondThin;endFill=1;endSize=24;html=1;rounded=0;entryX=1;entryY=0;entryDx=0;entryDy=0;exitX=0;exitY=0.5;exitDx=0;exitDy=0;edgeStyle=orthogonalEdgeStyle;fillColor=#1ba1e2;strokeColor=#006EAF;fontSize=14;" parent="WIyWlLk6GJQsqaUBKTNV-1" source="kFfvKU7xWy5KH7vrhpyQ-201" target="zkfFHV4jXpPFQw0GAbJ--0" edge="1">
          <mxGeometry width="160" relative="1" as="geometry">
            <mxPoint x="550" y="80" as="sourcePoint" />
            <mxPoint x="710" y="80" as="targetPoint" />
            <Array as="points">
              <mxPoint x="810" y="50" />
              <mxPoint x="415" y="50" />
            </Array>
          </mxGeometry>
        </mxCell>
        <mxCell id="kFfvKU7xWy5KH7vrhpyQ-203" value="1" style="edgeLabel;html=1;align=center;verticalAlign=middle;resizable=0;points=[];fontSize=14;" parent="kFfvKU7xWy5KH7vrhpyQ-202" vertex="1" connectable="0">
          <mxGeometry x="0.7884" y="3" relative="1" as="geometry">
            <mxPoint as="offset" />
          </mxGeometry>
        </mxCell>
        <mxCell id="kFfvKU7xWy5KH7vrhpyQ-204" value="1" style="edgeLabel;html=1;align=center;verticalAlign=middle;resizable=0;points=[];fontSize=14;" parent="kFfvKU7xWy5KH7vrhpyQ-202" vertex="1" connectable="0">
          <mxGeometry x="-0.9125" relative="1" as="geometry">
            <mxPoint as="offset" />
          </mxGeometry>
        </mxCell>
        <mxCell id="kFfvKU7xWy5KH7vrhpyQ-205" value="" style="endArrow=diamondThin;endFill=1;endSize=24;html=1;rounded=0;entryX=1;entryY=0.5;entryDx=0;entryDy=0;exitX=0;exitY=0.25;exitDx=0;exitDy=0;fontSize=14;" parent="WIyWlLk6GJQsqaUBKTNV-1" source="kFfvKU7xWy5KH7vrhpyQ-197" target="kFfvKU7xWy5KH7vrhpyQ-37" edge="1">
          <mxGeometry width="160" relative="1" as="geometry">
            <mxPoint x="780" y="-130" as="sourcePoint" />
            <mxPoint x="940" y="-130" as="targetPoint" />
          </mxGeometry>
        </mxCell>
        <mxCell id="kFfvKU7xWy5KH7vrhpyQ-209" value="" style="endArrow=none;html=1;rounded=0;entryX=0;entryY=0;entryDx=0;entryDy=0;edgeStyle=orthogonalEdgeStyle;exitX=1;exitY=0.5;exitDx=0;exitDy=0;fillColor=#1ba1e2;strokeColor=#006EAF;fontSize=14;" parent="WIyWlLk6GJQsqaUBKTNV-1" source="kFfvKU7xWy5KH7vrhpyQ-57" target="kFfvKU7xWy5KH7vrhpyQ-18" edge="1">
          <mxGeometry width="50" height="50" relative="1" as="geometry">
            <mxPoint x="480" y="150" as="sourcePoint" />
            <mxPoint x="530" y="140" as="targetPoint" />
            <Array as="points">
              <mxPoint />
              <mxPoint x="550" />
              <mxPoint x="550" y="148" />
            </Array>
          </mxGeometry>
        </mxCell>
        <mxCell id="kFfvKU7xWy5KH7vrhpyQ-210" value="1" style="edgeLabel;html=1;align=center;verticalAlign=middle;resizable=0;points=[];fontSize=14;" parent="kFfvKU7xWy5KH7vrhpyQ-209" vertex="1" connectable="0">
          <mxGeometry x="0.9229" relative="1" as="geometry">
            <mxPoint as="offset" />
          </mxGeometry>
        </mxCell>
        <mxCell id="kFfvKU7xWy5KH7vrhpyQ-211" value="0..*" style="edgeLabel;html=1;align=center;verticalAlign=middle;resizable=0;points=[];fontSize=14;" parent="kFfvKU7xWy5KH7vrhpyQ-209" vertex="1" connectable="0">
          <mxGeometry x="-0.8475" y="1" relative="1" as="geometry">
            <mxPoint as="offset" />
          </mxGeometry>
        </mxCell>
        <mxCell id="kFfvKU7xWy5KH7vrhpyQ-212" value="Baker" style="swimlane;fontStyle=0;align=center;verticalAlign=top;childLayout=stackLayout;horizontal=1;startSize=26;horizontalStack=0;resizeParent=1;resizeLast=0;collapsible=1;marginBottom=0;rounded=0;shadow=0;strokeWidth=1;fontSize=14;" parent="WIyWlLk6GJQsqaUBKTNV-1" vertex="1">
          <mxGeometry x="310" y="620" width="160" height="216" as="geometry">
            <mxRectangle x="550" y="140" width="160" height="26" as="alternateBounds" />
          </mxGeometry>
        </mxCell>
        <mxCell id="kFfvKU7xWy5KH7vrhpyQ-218" value="" style="line;html=1;strokeWidth=1;align=left;verticalAlign=middle;spacingTop=-1;spacingLeft=3;spacingRight=3;rotatable=0;labelPosition=right;points=[];portConstraint=eastwest;fontSize=14;" parent="kFfvKU7xWy5KH7vrhpyQ-212" vertex="1">
          <mxGeometry y="26" width="160" height="8" as="geometry" />
        </mxCell>
        <mxCell id="kFfvKU7xWy5KH7vrhpyQ-219" value="updateKitchenStatus()" style="text;align=left;verticalAlign=top;spacingLeft=4;spacingRight=4;overflow=hidden;rotatable=0;points=[[0,0.5],[1,0.5]];portConstraint=eastwest;fontSize=14;" parent="kFfvKU7xWy5KH7vrhpyQ-212" vertex="1">
          <mxGeometry y="34" width="160" height="26" as="geometry" />
        </mxCell>
        <mxCell id="kFfvKU7xWy5KH7vrhpyQ-221" value="Extends" style="endArrow=block;endSize=16;endFill=0;html=1;rounded=0;fillColor=#f0a30a;strokeColor=#BD7000;entryX=0;entryY=0.5;entryDx=0;entryDy=0;edgeStyle=orthogonalEdgeStyle;exitX=0.5;exitY=0;exitDx=0;exitDy=0;fontSize=14;" parent="WIyWlLk6GJQsqaUBKTNV-1" source="kFfvKU7xWy5KH7vrhpyQ-212" target="kFfvKU7xWy5KH7vrhpyQ-78" edge="1">
          <mxGeometry width="160" relative="1" as="geometry">
            <mxPoint x="270" y="630" as="sourcePoint" />
            <mxPoint x="430" y="600" as="targetPoint" />
            <Array as="points">
              <mxPoint x="390" y="580" />
              <mxPoint x="610" y="580" />
            </Array>
          </mxGeometry>
        </mxCell>
        <mxCell id="kFfvKU7xWy5KH7vrhpyQ-223" value="" style="endArrow=none;html=1;rounded=0;edgeStyle=orthogonalEdgeStyle;entryX=0;entryY=0.5;entryDx=0;entryDy=0;exitX=-0.025;exitY=0.166;exitDx=0;exitDy=0;exitPerimeter=0;fontSize=14;" parent="WIyWlLk6GJQsqaUBKTNV-1" edge="1">
          <mxGeometry width="50" height="50" relative="1" as="geometry">
            <mxPoint x="-334" y="438.3159999999998" as="sourcePoint" />
            <mxPoint x="-360" y="211.00000000000023" as="targetPoint" />
            <Array as="points">
              <mxPoint x="-390" y="438" />
              <mxPoint x="-390" y="211" />
            </Array>
          </mxGeometry>
        </mxCell>
        <mxCell id="kFfvKU7xWy5KH7vrhpyQ-224" value="1" style="edgeLabel;html=1;align=center;verticalAlign=middle;resizable=0;points=[];fontSize=14;" parent="kFfvKU7xWy5KH7vrhpyQ-223" vertex="1" connectable="0">
          <mxGeometry x="-0.8913" relative="1" as="geometry">
            <mxPoint as="offset" />
          </mxGeometry>
        </mxCell>
        <mxCell id="kFfvKU7xWy5KH7vrhpyQ-225" value="1..*" style="edgeLabel;html=1;align=center;verticalAlign=middle;resizable=0;points=[];fontSize=14;" parent="kFfvKU7xWy5KH7vrhpyQ-223" vertex="1" connectable="0">
          <mxGeometry x="0.6619" y="2" relative="1" as="geometry">
            <mxPoint as="offset" />
          </mxGeometry>
        </mxCell>
        <mxCell id="kFfvKU7xWy5KH7vrhpyQ-234" value="Discount" style="swimlane;fontStyle=0;align=center;verticalAlign=top;childLayout=stackLayout;horizontal=1;startSize=26;horizontalStack=0;resizeParent=1;resizeLast=0;collapsible=1;marginBottom=0;rounded=0;shadow=0;strokeWidth=1;fontSize=14;" parent="WIyWlLk6GJQsqaUBKTNV-1" vertex="1">
          <mxGeometry x="110" y="338" width="160" height="212" as="geometry">
            <mxRectangle x="550" y="140" width="160" height="26" as="alternateBounds" />
          </mxGeometry>
        </mxCell>
        <mxCell id="kFfvKU7xWy5KH7vrhpyQ-235" value="-amount" style="text;align=left;verticalAlign=top;spacingLeft=4;spacingRight=4;overflow=hidden;rotatable=0;points=[[0,0.5],[1,0.5]];portConstraint=eastwest;fontSize=14;" parent="kFfvKU7xWy5KH7vrhpyQ-234" vertex="1">
          <mxGeometry y="26" width="160" height="22" as="geometry" />
        </mxCell>
        <mxCell id="kFfvKU7xWy5KH7vrhpyQ-236" value="-time" style="text;align=left;verticalAlign=top;spacingLeft=4;spacingRight=4;overflow=hidden;rotatable=0;points=[[0,0.5],[1,0.5]];portConstraint=eastwest;fontSize=14;" parent="kFfvKU7xWy5KH7vrhpyQ-234" vertex="1">
          <mxGeometry y="48" width="160" height="22" as="geometry" />
        </mxCell>
        <mxCell id="kFfvKU7xWy5KH7vrhpyQ-237" value="" style="line;html=1;strokeWidth=1;align=left;verticalAlign=middle;spacingTop=-1;spacingLeft=3;spacingRight=3;rotatable=0;labelPosition=right;points=[];portConstraint=eastwest;fontSize=14;" parent="kFfvKU7xWy5KH7vrhpyQ-234" vertex="1">
          <mxGeometry y="70" width="160" height="8" as="geometry" />
        </mxCell>
        <mxCell id="kFfvKU7xWy5KH7vrhpyQ-240" value="updateTime(time)" style="text;align=left;verticalAlign=top;spacingLeft=4;spacingRight=4;overflow=hidden;rotatable=0;points=[[0,0.5],[1,0.5]];portConstraint=eastwest;fontSize=14;" parent="kFfvKU7xWy5KH7vrhpyQ-234" vertex="1">
          <mxGeometry y="78" width="160" height="26" as="geometry" />
        </mxCell>
        <mxCell id="kFfvKU7xWy5KH7vrhpyQ-241" value="" style="endArrow=diamondThin;endFill=1;endSize=24;html=1;rounded=0;edgeStyle=orthogonalEdgeStyle;exitX=1;exitY=0.5;exitDx=0;exitDy=0;fontSize=14;" parent="WIyWlLk6GJQsqaUBKTNV-1" source="kFfvKU7xWy5KH7vrhpyQ-240" edge="1">
          <mxGeometry width="160" relative="1" as="geometry">
            <mxPoint x="280" y="397" as="sourcePoint" />
            <mxPoint x="340" y="396.6" as="targetPoint" />
          </mxGeometry>
        </mxCell>
        <mxCell id="3z05yCh0M3bIX2PmXJlg-8" value="1" style="text;html=1;align=center;verticalAlign=middle;resizable=0;points=[];autosize=1;strokeColor=none;fillColor=none;fontSize=14;" parent="WIyWlLk6GJQsqaUBKTNV-1" vertex="1">
          <mxGeometry x="840" y="181" width="30" height="30" as="geometry" />
        </mxCell>
        <mxCell id="3z05yCh0M3bIX2PmXJlg-14" value="1&lt;br style=&quot;font-size: 14px;&quot;&gt;" style="text;html=1;align=center;verticalAlign=middle;resizable=0;points=[];autosize=1;strokeColor=none;fillColor=none;fontSize=14;" parent="WIyWlLk6GJQsqaUBKTNV-1" vertex="1">
          <mxGeometry x="770" y="226" width="30" height="30" as="geometry" />
        </mxCell>
        <mxCell id="3z05yCh0M3bIX2PmXJlg-15" value="" style="endArrow=diamondThin;endFill=1;endSize=24;html=1;rounded=0;exitX=0;exitY=0.5;exitDx=0;exitDy=0;entryX=1;entryY=0.5;entryDx=0;entryDy=0;fillColor=#1ba1e2;strokeColor=#006EAF;fontSize=14;" parent="WIyWlLk6GJQsqaUBKTNV-1" source="zkfFHV4jXpPFQw0GAbJ--24" edge="1">
          <mxGeometry width="160" relative="1" as="geometry">
            <mxPoint x="835" y="197" as="sourcePoint" />
            <mxPoint x="760" y="211" as="targetPoint" />
          </mxGeometry>
        </mxCell>
        <mxCell id="TpkA-6NRBsBNsw0Zjosy-12" value="Supplier&#xa;" style="swimlane;fontStyle=0;align=center;verticalAlign=top;childLayout=stackLayout;horizontal=1;startSize=26;horizontalStack=0;resizeParent=1;resizeLast=0;collapsible=1;marginBottom=0;rounded=0;shadow=0;strokeWidth=1;fontSize=14;" parent="WIyWlLk6GJQsqaUBKTNV-1" vertex="1">
          <mxGeometry x="69" y="-390" width="200" height="216" as="geometry">
            <mxRectangle x="550" y="140" width="160" height="26" as="alternateBounds" />
          </mxGeometry>
        </mxCell>
        <mxCell id="TpkA-6NRBsBNsw0Zjosy-13" value="" style="line;html=1;strokeWidth=1;align=left;verticalAlign=middle;spacingTop=-1;spacingLeft=3;spacingRight=3;rotatable=0;labelPosition=right;points=[];portConstraint=eastwest;fontSize=14;" parent="TpkA-6NRBsBNsw0Zjosy-12" vertex="1">
          <mxGeometry y="26" width="200" height="24" as="geometry" />
        </mxCell>
        <mxCell id="TpkA-6NRBsBNsw0Zjosy-14" value="supplyIngredients(ingredientNo)" style="text;align=left;verticalAlign=top;spacingLeft=4;spacingRight=4;overflow=hidden;rotatable=0;points=[[0,0.5],[1,0.5]];portConstraint=eastwest;rounded=0;shadow=0;html=0;fontSize=14;" parent="TpkA-6NRBsBNsw0Zjosy-12" vertex="1">
          <mxGeometry y="50" width="200" height="26" as="geometry" />
        </mxCell>
        <mxCell id="TpkA-6NRBsBNsw0Zjosy-19" value="sentIngredientStatus(ingredientNo)" style="text;align=left;verticalAlign=top;spacingLeft=4;spacingRight=4;overflow=hidden;rotatable=0;points=[[0,0.5],[1,0.5]];portConstraint=eastwest;rounded=0;shadow=0;html=0;fontSize=14;" parent="TpkA-6NRBsBNsw0Zjosy-12" vertex="1">
          <mxGeometry y="76" width="200" height="26" as="geometry" />
        </mxCell>
        <mxCell id="TpkA-6NRBsBNsw0Zjosy-15" value="" style="endArrow=diamondThin;endFill=0;endSize=24;html=1;rounded=0;entryX=0.5;entryY=0;entryDx=0;entryDy=0;exitX=0.5;exitY=1;exitDx=0;exitDy=0;fontSize=14;" parent="WIyWlLk6GJQsqaUBKTNV-1" source="TpkA-6NRBsBNsw0Zjosy-12" target="zkfFHV4jXpPFQw0GAbJ--0" edge="1">
          <mxGeometry width="160" relative="1" as="geometry">
            <mxPoint x="180" y="-111.82" as="sourcePoint" />
            <mxPoint x="340" y="-111.82" as="targetPoint" />
            <Array as="points">
              <mxPoint x="335" y="-110" />
            </Array>
          </mxGeometry>
        </mxCell>
        <mxCell id="TpkA-6NRBsBNsw0Zjosy-16" value="1..n" style="edgeLabel;html=1;align=center;verticalAlign=middle;resizable=0;points=[];fontSize=14;" parent="TpkA-6NRBsBNsw0Zjosy-15" vertex="1" connectable="0">
          <mxGeometry x="-0.7324" relative="1" as="geometry">
            <mxPoint as="offset" />
          </mxGeometry>
        </mxCell>
        <mxCell id="TpkA-6NRBsBNsw0Zjosy-17" value="1" style="edgeLabel;html=1;align=center;verticalAlign=middle;resizable=0;points=[];fontSize=14;" parent="TpkA-6NRBsBNsw0Zjosy-15" vertex="1" connectable="0">
          <mxGeometry x="0.7217" y="1" relative="1" as="geometry">
            <mxPoint as="offset" />
          </mxGeometry>
        </mxCell>
      </root>
    </mxGraphModel>
  </diagram>
</mxfile>
